<?xml version="1.0" standalone="no"?><!DOCTYPE svg PUBLIC "-//W3C//DTD SVG 1.1//EN" "http://www.w3.org/Graphics/SVG/1.1/DTD/svg11.dtd"><svg class="icon" width="200px" height="200.00px" viewBox="0 0 1024 1024" version="1.1" xmlns="http://www.w3.org/2000/svg"><path d="M426.666667 213.333333h170.666666v106.666667h-170.666666z" fill="#E9FF5B" /><path d="M682.666667 42.666667a106.666667 106.666667 0 0 1 106.666666 106.666666v725.333334a106.666667 106.666667 0 0 1-106.666666 106.666666H341.333333a106.666667 106.666667 0 0 1-106.666666-106.666666V149.333333a106.666667 106.666667 0 0 1 106.666666-106.666666h341.333334z m64 426.666666H277.333333v405.333334a64 64 0 0 0 64 64h341.333334a64 64 0 0 0 64-64V469.333333zM533.333333 832a21.333333 21.333333 0 0 1 0 42.666667h-42.666666a21.333333 21.333333 0 0 1 0-42.666667h42.666666z m-192-341.333333a21.333333 21.333333 0 0 1 21.333334 21.333333v106.666667a21.333333 21.333333 0 0 1-42.666667 0v-106.666667a21.333333 21.333333 0 0 1 21.333333-21.333333zM682.666667 85.333333H341.333333a64 64 0 0 0-64 64v277.333334h469.333334V149.333333a64 64 0 0 0-64-64zM341.333333 320a21.333333 21.333333 0 0 1 21.333334 21.333333v42.666667a21.333333 21.333333 0 0 1-42.666667 0v-42.666667a21.333333 21.333333 0 0 1 21.333333-21.333333z m256-128a21.333333 21.333333 0 0 1 21.333334 21.333333v106.666667a21.333333 21.333333 0 0 1-21.333334 21.333333h-170.666666a21.333333 21.333333 0 0 1-21.333334-21.333333v-106.666667a21.333333 21.333333 0 0 1 21.333334-21.333333h170.666666z m-21.333333 42.666667h-128v64h128v-64z" fill="#4E4E4E" /></svg>